<?xml version="1.0" encoding="UTF-8"?>
<svg width="100px" height="100px" viewBox="0 0 100 100" version="1.1" xmlns="http://www.w3.org/2000/svg" xmlns:xlink="http://www.w3.org/1999/xlink">
    <title>Group 58</title>
    <g id="IOS" stroke="none" stroke-width="1" fill="none" fill-rule="evenodd">
        <g id="Group-58">
            <rect id="Rectangle" x="0" y="0" width="100" height="100"></rect>
            <g id="neo-geo-icon-11" transform="translate(5.000000, 18.000000)" fill="#000000" fill-rule="nonzero">
                <g id="Group" transform="translate(45.000000, 32.000000) scale(-1, 1) rotate(-180.000000) translate(-45.000000, -32.000000) ">
                    <path d="M0.687662783,63.1483614 C0.151536465,62.3582168 0.119999623,60.5250811 0.0253890965,35.8725677 C-0.037684588,21.3655117 0.0253890965,7.61699455 0.119999623,5.30977213 C0.340757519,1.39065461 0.372294361,1.10620253 1.03456805,0.916567808 C2.10682068,0.53729837 12.0093891,0.663721516 12.9870313,1.04299095 C13.7439155,1.35904882 13.838526,1.58028932 13.838526,2.812915 C13.838526,3.60305966 14.027747,4.61444483 14.2169681,5.12013741 C14.5007997,5.72064736 14.6584839,9.03925494 14.7846313,15.8028932 C14.9107786,24.4944845 15.0053892,25.7271102 15.5099786,26.4856491 C16.6137681,28.1607558 17.5283365,27.7182748 22.2903997,23.0722241 C23.7410945,21.6815695 25.0656418,20.575367 25.2548629,20.6385786 C25.4125471,20.6701844 25.4756208,20.6069728 25.3810103,20.4489439 C25.1602524,20.0696744 27.5255155,17.7940578 27.8408839,18.0785099 C27.9670313,18.2365388 28.030105,18.1733272 27.9670313,17.9520867 C27.9039576,17.7308462 30.6161261,14.7915081 33.9905682,11.3780831 C40.6448419,4.61444483 43.6723788,2.30722241 47.6775577,0.821750449 L49.9482104,0 L63.5090525,0 C73.9162105,0 77.4798736,0.0948173595 78.804421,0.442481011 C83.4088,1.58028932 87.0355368,4.36159854 88.9277474,8.24911028 L90,10.4299095 L90,22.9141952 C90,36.5995008 89.9684632,36.8839528 88.1393263,38.1797901 C87.1616842,38.8751174 87.0670737,38.8751174 73.2223999,38.9699348 L59.2515788,39.0647521 L59.2515788,31.2897286 L59.2515788,23.5463109 L67.3250104,23.5463109 L75.4299789,23.5463109 L75.2407578,20.8282133 C75.0515368,17.762452 74.5784841,16.8142784 72.7808841,15.8977106 C71.8663157,15.392018 70.7625262,15.3288065 64.7705262,15.3288065 C56.8863157,15.3604122 53.7957051,15.6448643 51.7142735,16.6246437 C50.610484,17.1619421 44.6815577,22.8825894 27.5570524,39.9813199 C15.0684628,52.4339998 4.44054701,62.9587267 3.93595753,63.3063904 C2.67448384,64.2861697 1.38147331,64.2229582 0.687662783,63.1483614 Z" id="Path"></path>
                    <path d="M39.3833682,63.654054 C37.617305,63.3063904 36.5450524,62.5478515 35.8512419,61.1255911 C35.3466524,60.1774175 35.2835787,59.0080034 35.2835787,51.1697683 L35.2835787,42.3201481 L41.5909472,36.0305966 C45.0599998,32.5855659 48.1190735,29.614622 48.3713682,29.456593 C49.6013051,28.7612657 49.7589893,29.5514104 49.8535998,37.8637322 C49.9482104,46.4289004 50.011284,46.776564 51.6511998,47.6299203 C52.2819367,47.9459781 56.5394104,48.0724013 71.0778947,48.1988244 C81.3273684,48.2936418 89.7161684,48.4200649 89.7161684,48.4516707 C90.0315368,48.9257575 90.0946105,49.6210848 89.8107789,50.3164121 C89.3061895,51.7070667 78.5521263,62.3898226 76.9122105,63.1799672 C75.5245894,63.8436887 75.1146105,63.8436887 58.1477893,63.9069003 C48.623663,63.9069003 40.1717893,63.8120829 39.3833682,63.654054 Z" id="Path"></path>
                </g>
            </g>
        </g>
    </g>
</svg>